<svg width="14" height="14" viewBox="0 0 14 14" fill="none" xmlns="http://www.w3.org/2000/svg">
<g clip-path="url(#clip0_1457_30327)">
<rect width="14" height="14" rx="7" fill="white"/>
<path d="M6.35755 7.96195L6.35898 7.9629L8.98224 9.71174C8.98258 9.71196 8.98292 9.71219 8.98326 9.71242C9.51631 10.0702 10.2339 9.92205 10.5879 9.39102C10.9443 8.85649 10.798 8.14178 10.266 7.7871L10.2658 7.78695L8.15625 6.38223V3.28125C8.15625 2.64144 7.63981 2.125 7 2.125C6.36019 2.125 5.84375 2.64144 5.84375 3.28125V7C5.84375 7.38624 6.03684 7.74654 6.35755 7.96195ZM7 0.5C8.72391 0.5 10.3772 1.18482 11.5962 2.40381C12.8152 3.62279 13.5 5.27609 13.5 7C13.5 8.72391 12.8152 10.3772 11.5962 11.5962C10.3772 12.8152 8.72391 13.5 7 13.5C5.27609 13.5 3.62279 12.8152 2.40381 11.5962C1.18482 10.3772 0.5 8.72391 0.5 7C0.5 5.27609 1.18482 3.62279 2.40381 2.40381C3.62279 1.18482 5.27609 0.5 7 0.5Z" fill="#F3563A" stroke="#F3563A"/>
</g>
<defs>
<clipPath id="clip0_1457_30327">
<rect width="14" height="14" rx="7" fill="white"/>
</clipPath>
</defs>
</svg>
