<svg width="18" height="18" viewBox="0 0 18 18" fill="none" xmlns="http://www.w3.org/2000/svg">
<rect width="18" height="18" fill="#BFBFBF" fill-opacity="0.2"/>
<rect x="0.5" y="0.5" width="17" height="17" stroke="#BFBFBF" stroke-opacity="0.7"/>
<path d="M12.7651 6.205C12.9096 6.34161 12.9939 6.53002 12.9996 6.72879C13.0052 6.92757 12.9316 7.12044 12.7951 7.265L8.54509 11.765C8.47621 11.8378 8.39344 11.8961 8.30166 11.9363C8.20989 11.9766 8.11097 11.9981 8.01076 11.9995C7.91054 12.0009 7.81107 11.9822 7.7182 11.9445C7.62534 11.9068 7.54098 11.8509 7.47009 11.78L5.22009 9.53C5.08761 9.38783 5.01549 9.19978 5.01892 9.00548C5.02234 8.81118 5.10106 8.62579 5.23847 8.48838C5.37588 8.35097 5.56127 8.27225 5.75557 8.26883C5.94987 8.2654 6.13792 8.33752 6.28009 8.47L7.98509 10.174L11.7051 6.235C11.8417 6.0905 12.0301 6.00616 12.2289 6.00054C12.4277 5.99491 12.6205 6.06846 12.7651 6.205Z" fill="#102DC6"/>
</svg>
