<svg width="29" height="29" viewBox="0 0 29 29" fill="none" xmlns="http://www.w3.org/2000/svg">
<path d="M2.41666 14.4999C2.41666 9.94329 2.41666 7.66438 3.83282 6.24942C5.24778 4.83325 7.5267 4.83325 12.0833 4.83325H16.9167C21.4733 4.83325 23.7522 4.83325 25.1672 6.24942C26.5833 7.66438 26.5833 9.94329 26.5833 14.4999V16.9166C26.5833 21.4732 26.5833 23.7521 25.1672 25.1671C23.7522 26.5833 21.4733 26.5833 16.9167 26.5833H12.0833C7.5267 26.5833 5.24778 26.5833 3.83282 25.1671C2.41666 23.7521 2.41666 21.4732 2.41666 16.9166V14.4999Z" stroke="#555555" stroke-width="1.5"/>
<path opacity="0.5" d="M8.45831 4.83325V3.02075M20.5416 4.83325V3.02075M3.02081 10.8749H25.9791" stroke="#555555" stroke-width="1.5" stroke-linecap="round"/>
<path d="M21.75 20.5417C21.75 20.8621 21.6227 21.1695 21.3961 21.3961C21.1695 21.6227 20.8621 21.75 20.5417 21.75C20.2212 21.75 19.9139 21.6227 19.6872 21.3961C19.4606 21.1695 19.3333 20.8621 19.3333 20.5417C19.3333 20.2212 19.4606 19.9139 19.6872 19.6872C19.9139 19.4606 20.2212 19.3333 20.5417 19.3333C20.8621 19.3333 21.1695 19.4606 21.3961 19.6872C21.6227 19.9139 21.75 20.2212 21.75 20.5417ZM21.75 15.7083C21.75 16.0288 21.6227 16.3361 21.3961 16.5628C21.1695 16.7894 20.8621 16.9167 20.5417 16.9167C20.2212 16.9167 19.9139 16.7894 19.6872 16.5628C19.4606 16.3361 19.3333 16.0288 19.3333 15.7083C19.3333 15.3879 19.4606 15.0805 19.6872 14.8539C19.9139 14.6273 20.2212 14.5 20.5417 14.5C20.8621 14.5 21.1695 14.6273 21.3961 14.8539C21.6227 15.0805 21.75 15.3879 21.75 15.7083ZM15.7083 20.5417C15.7083 20.8621 15.581 21.1695 15.3544 21.3961C15.1278 21.6227 14.8205 21.75 14.5 21.75C14.1795 21.75 13.8722 21.6227 13.6456 21.3961C13.419 21.1695 13.2917 20.8621 13.2917 20.5417C13.2917 20.2212 13.419 19.9139 13.6456 19.6872C13.8722 19.4606 14.1795 19.3333 14.5 19.3333C14.8205 19.3333 15.1278 19.4606 15.3544 19.6872C15.581 19.9139 15.7083 20.2212 15.7083 20.5417ZM15.7083 15.7083C15.7083 16.0288 15.581 16.3361 15.3544 16.5628C15.1278 16.7894 14.8205 16.9167 14.5 16.9167C14.1795 16.9167 13.8722 16.7894 13.6456 16.5628C13.419 16.3361 13.2917 16.0288 13.2917 15.7083C13.2917 15.3879 13.419 15.0805 13.6456 14.8539C13.8722 14.6273 14.1795 14.5 14.5 14.5C14.8205 14.5 15.1278 14.6273 15.3544 14.8539C15.581 15.0805 15.7083 15.3879 15.7083 15.7083ZM9.66667 20.5417C9.66667 20.8621 9.53936 21.1695 9.31275 21.3961C9.08615 21.6227 8.7788 21.75 8.45833 21.75C8.13786 21.75 7.83052 21.6227 7.60391 21.3961C7.37731 21.1695 7.25 20.8621 7.25 20.5417C7.25 20.2212 7.37731 19.9139 7.60391 19.6872C7.83052 19.4606 8.13786 19.3333 8.45833 19.3333C8.7788 19.3333 9.08615 19.4606 9.31275 19.6872C9.53936 19.9139 9.66667 20.2212 9.66667 20.5417ZM9.66667 15.7083C9.66667 16.0288 9.53936 16.3361 9.31275 16.5628C9.08615 16.7894 8.7788 16.9167 8.45833 16.9167C8.13786 16.9167 7.83052 16.7894 7.60391 16.5628C7.37731 16.3361 7.25 16.0288 7.25 15.7083C7.25 15.3879 7.37731 15.0805 7.60391 14.8539C7.83052 14.6273 8.13786 14.5 8.45833 14.5C8.7788 14.5 9.08615 14.6273 9.31275 14.8539C9.53936 15.0805 9.66667 15.3879 9.66667 15.7083Z" fill="#555555"/>
</svg>
