<svg width="20" height="20" viewBox="0 0 20 20" fill="none" xmlns="http://www.w3.org/2000/svg">
<g clip-path="url(#clip0_26_2299)">
<path d="M5.41667 10.625C4.17833 10.625 3.15292 11.5267 2.95417 12.7083H0.416666C0.186547 12.7083 0 12.8949 0 13.125C0 13.3551 0.186548 13.5417 0.416666 13.5417H2.95417C3.15292 14.7238 4.17833 15.625 5.41667 15.625C6.655 15.625 7.68042 14.7238 7.87917 13.5417H19.5833C19.8135 13.5417 20 13.3551 20 13.125C20 12.8949 19.8135 12.7083 19.5833 12.7083H7.87917C7.68042 11.5267 6.655 10.625 5.41667 10.625ZM5.41667 14.7917C4.49625 14.7917 3.75 14.0454 3.75 13.125C3.75 12.2046 4.49625 11.4583 5.41667 11.4583C6.33708 11.4583 7.08333 12.2046 7.08333 13.125C7.08333 14.0454 6.33708 14.7917 5.41667 14.7917ZM17.0458 6.45833C16.8475 5.27625 15.8221 4.375 14.5833 4.375C13.3446 4.375 12.3192 5.27625 12.1208 6.45833H0.416668C0.186549 6.45833 0 6.64488 0 6.875C0 7.10512 0.186548 7.29167 0.416667 7.29167H12.1208C12.3196 8.47375 13.345 9.375 14.5833 9.375C15.8217 9.375 16.8475 8.47375 17.0458 7.29167H19.5833C19.8135 7.29167 20 7.10512 20 6.875C20 6.64488 19.8135 6.45833 19.5833 6.45833H17.0458ZM14.5833 8.54167C13.6629 8.54167 12.9167 7.79542 12.9167 6.875C12.9167 5.95458 13.6629 5.20833 14.5833 5.20833C15.5037 5.20833 16.25 5.95458 16.25 6.875C16.25 7.79542 15.5037 8.54167 14.5833 8.54167Z" fill="#222222"/>
</g>
<defs>
<clipPath id="clip0_26_2299">
<rect width="20" height="20" fill="white"/>
</clipPath>
</defs>
</svg>
