<svg width="50" height="50" viewBox="0 0 50 50" fill="none" xmlns="http://www.w3.org/2000/svg">
<path d="M25 4.6875C13.8 4.6875 4.6875 13.8 4.6875 25C4.6875 36.2 13.8 45.3125 25 45.3125C36.2 45.3125 45.3125 36.2 45.3125 25C45.3125 13.8 36.2 4.6875 25 4.6875ZM25 7.8125C34.5109 7.8125 42.1875 15.4891 42.1875 25C42.1875 34.5109 34.5109 42.1875 25 42.1875C15.4891 42.1875 7.8125 34.5109 7.8125 25C7.8125 15.4891 15.4891 7.8125 25 7.8125ZM23.4375 15.625V23.4375H15.625V26.5625H23.4375V34.375H26.5625V26.5625H34.375V23.4375H26.5625V15.625H23.4375Z" fill="#102DC6"/>
</svg>
