<svg width="31" height="31" viewBox="0 0 31 31" fill="none" xmlns="http://www.w3.org/2000/svg">
<path d="M24.7484 10.3849L19.5817 5.77368C17.2567 3.69409 13.7434 3.69409 11.4184 5.77368L6.25169 10.3849C4.9471 11.5474 4.19794 13.2137 4.19794 14.9703V23.1853C4.19794 25.8978 6.36794 28.1066 9.04169 28.1066H21.9584C24.6321 28.1066 26.8021 25.8978 26.8021 23.1853V14.9703C26.8021 13.2266 26.0529 11.5474 24.7484 10.3849ZM18.4063 26.1562H12.5938V21.9583C12.5938 20.3566 13.8984 19.052 15.5 19.052C17.1017 19.052 18.4063 20.3566 18.4063 21.9583V26.1562ZM24.8646 23.1724C24.8646 24.8128 23.56 26.1562 21.9584 26.1562H20.3438V21.9583C20.3438 19.2845 18.1738 17.1145 15.5 17.1145C12.8263 17.1145 10.6563 19.2845 10.6563 21.9583V26.1562H9.04169C7.44002 26.1562 6.13544 24.8258 6.13544 23.1724V14.9574C6.13544 13.7562 6.6521 12.6195 7.54335 11.8187L12.71 7.20743C14.2988 5.78659 16.7013 5.78659 18.29 7.20743L23.4567 11.8187C24.3479 12.6195 24.8646 13.7562 24.8646 14.9574V23.1724Z" fill="#0A0A0A"/>
</svg>
