<svg width="31" height="31" viewBox="0 0 31 31" fill="none" xmlns="http://www.w3.org/2000/svg">
<path d="M24.5988 22.798C23.2523 20.4702 21.1775 18.8011 18.756 18.0099C19.9538 17.2968 20.8843 16.2103 21.4048 14.9172C21.9253 13.6241 22.007 12.1959 21.6372 10.8519C21.2675 9.50794 20.4667 8.32248 19.358 7.47761C18.2493 6.63274 16.8939 6.17517 15.5 6.17517C14.1061 6.17517 12.7507 6.63274 11.642 7.47761C10.5333 8.32248 9.73255 9.50794 9.36278 10.8519C8.99302 12.1959 9.07466 13.6241 9.59516 14.9172C10.1157 16.2103 11.0462 17.2968 12.244 18.0099C9.82255 18.8002 7.74765 20.4693 6.40123 22.798C6.35185 22.8785 6.3191 22.968 6.30491 23.0614C6.29071 23.1548 6.29537 23.2501 6.31859 23.3416C6.34181 23.4331 6.38313 23.5191 6.44012 23.5944C6.4971 23.6698 6.5686 23.7329 6.65038 23.7801C6.73216 23.8274 6.82257 23.8577 6.91629 23.8695C7.01 23.8812 7.10512 23.874 7.19602 23.8484C7.28692 23.8228 7.37177 23.7792 7.44556 23.7203C7.51935 23.6613 7.58058 23.5882 7.62565 23.5052C9.29123 20.6267 12.2352 18.9081 15.5 18.9081C18.7648 18.9081 21.7088 20.6267 23.3743 23.5052C23.4194 23.5882 23.4807 23.6613 23.5544 23.7203C23.6282 23.7792 23.7131 23.8228 23.804 23.8484C23.8949 23.874 23.99 23.8812 24.0837 23.8695C24.1774 23.8577 24.2678 23.8274 24.3496 23.7801C24.4314 23.7329 24.5029 23.6698 24.5599 23.5944C24.6169 23.5191 24.6582 23.4331 24.6814 23.3416C24.7046 23.2501 24.7093 23.1548 24.6951 23.0614C24.6809 22.968 24.6481 22.8785 24.5988 22.798ZM10.5492 12.5428C10.5492 11.5637 10.8396 10.6065 11.3836 9.79234C11.9276 8.97819 12.7008 8.34364 13.6054 7.96893C14.5101 7.59422 15.5055 7.49618 16.4658 7.6872C17.4262 7.87823 18.3083 8.34974 19.0007 9.04212C19.6931 9.73449 20.1646 10.6166 20.3556 11.577C20.5466 12.5373 20.4486 13.5328 20.0739 14.4374C19.6992 15.342 19.0646 16.1152 18.2505 16.6592C17.4363 17.2032 16.4792 17.4936 15.5 17.4936C14.1874 17.4922 12.929 16.9701 12.0008 16.042C11.0727 15.1138 10.5507 13.8554 10.5492 12.5428Z" fill="black"/>
</svg>
