<svg width="30" height="30" viewBox="0 0 30 30" fill="none" xmlns="http://www.w3.org/2000/svg">
<path d="M25 25L19.9375 19.9375M19.9375 19.9375C20.75 19.1249 21.3946 18.1603 21.8343 17.0986C22.2741 16.037 22.5004 14.8991 22.5004 13.75C22.5004 12.6008 22.2741 11.463 21.8343 10.4013C21.3946 9.33965 20.75 8.37501 19.9375 7.56246C19.1249 6.7499 18.1603 6.10535 17.0986 5.6656C16.037 5.22585 14.8991 4.99951 13.75 4.99951C12.6009 4.99951 11.463 5.22585 10.4013 5.6656C9.33968 6.10535 8.37504 6.7499 7.56249 7.56246C5.92146 9.20349 4.99954 11.4292 4.99954 13.75C4.99954 16.0707 5.92146 18.2964 7.56249 19.9375C9.20352 21.5785 11.4292 22.5004 13.75 22.5004C16.0708 22.5004 18.2965 21.5785 19.9375 19.9375Z" stroke="#4C4C4C" stroke-width="2" stroke-linecap="round" stroke-linejoin="round"/>
</svg>
