<svg width="16" height="16" viewBox="0 0 16 16" fill="none" xmlns="http://www.w3.org/2000/svg">
<path fill-rule="evenodd" clip-rule="evenodd" d="M13.7174 7.41503V3.31399C13.7174 2.58705 13.1277 1.99727 12.4007 2.00001H8.30243C7.83609 2.00001 7.38895 2.1838 7.05977 2.51298L2.23179 7.34096C1.546 8.02675 1.546 9.13774 2.23179 9.82353L5.89392 13.4857C6.57972 14.1715 7.6907 14.1715 8.37649 13.4857L13.2045 8.65768C13.5337 8.3285 13.7174 7.88137 13.7174 7.41503ZM10.6667 6.66667C11.403 6.66667 12 6.06971 12 5.33333C12 4.59695 11.403 4 10.6667 4C9.93028 4 9.33333 4.59695 9.33333 5.33333C9.33333 6.06971 9.93028 6.66667 10.6667 6.66667Z" fill="#161717"/>
</svg>
